<?xml version="1.0" encoding="UTF-8" standalone="no"?>
<svg
   xmlns:dc="http://purl.org/dc/elements/1.1/"
   xmlns:cc="http://creativecommons.org/ns#"
   xmlns:rdf="http://www.w3.org/1999/02/22-rdf-syntax-ns#"
   xmlns:svg="http://www.w3.org/2000/svg"
   xmlns="http://www.w3.org/2000/svg"
   xmlns:sodipodi="http://sodipodi.sourceforge.net/DTD/sodipodi-0.dtd"
   xmlns:inkscape="http://www.inkscape.org/namespaces/inkscape"
   version="1.1"
   id="svg2"
   viewBox="0 0 60.000001 60.000001"
   height="60"
   width="60"
   inkscape:version="0.91 r13725"
   sodipodi:docname="crossblue.svg">
  <sodipodi:namedview
     pagecolor="#ffffff"
     bordercolor="#666666"
     borderopacity="1"
     objecttolerance="10"
     gridtolerance="10"
     guidetolerance="10"
     inkscape:pageopacity="0"
     inkscape:pageshadow="2"
     inkscape:window-width="1089"
     inkscape:window-height="662"
     id="namedview4151"
     showgrid="false"
     inkscape:zoom="5.9279119"
     inkscape:cx="30"
     inkscape:cy="30.353674"
     inkscape:window-x="0"
     inkscape:window-y="0"
     inkscape:window-maximized="0"
     inkscape:current-layer="svg2" />
  <defs
     id="defs4" />
  <metadata
     id="metadata7">
    <rdf:RDF>
      <cc:Work
         rdf:about="">
        <dc:format>image/svg+xml</dc:format>
        <dc:type
           rdf:resource="http://purl.org/dc/dcmitype/StillImage" />
        <dc:title></dc:title>
      </cc:Work>
    </rdf:RDF>
  </metadata>
  <g
     transform="matrix(0.96906179,0,0,0.96882934,0.92814255,-960.48728)"
     id="layer1"
     style="fill:#000000;fill-opacity:1;stroke:#add8e6;stroke-width:1.91553354;stroke-miterlimit:4;stroke-dasharray:none;stroke-opacity:1">
    <path
       transform="translate(0,992.3622)"
       id="rect4136"
       d="M 30,0 A 30,30 0 0 0 24,0.63867188 L 24,24 0.60742188,24 A 30,30 0 0 0 0,30 30,30 0 0 0 0.63867188,36 L 24,36 24,59.392578 A 30,30 0 0 0 30,60 30,30 0 0 0 36,59.361328 L 36,36 59.392578,36 A 30,30 0 0 0 60,30 30,30 0 0 0 59.361328,24 L 36,24 36,0.60742188 A 30,30 0 0 0 30,0 Z"
       style="opacity:1;fill:#000000;fill-opacity:1;stroke:#add8e6;stroke-width:1.91553354;stroke-miterlimit:4;stroke-dasharray:none;stroke-opacity:1"
       inkscape:connector-curvature="0" />
  </g>
</svg>
